<?xml version="1.0" encoding="UTF-8" standalone="no"?>
<!-- Created with Inkscape (http://www.inkscape.org/) -->

<svg
   width="128"
   height="128"
   viewBox="0 0 128 128"
   version="1.1"
   id="svg1"
   inkscape:export-filename="../about.png"
   inkscape:export-xdpi="96"
   inkscape:export-ydpi="96"
   sodipodi:docname="about.svg"
   inkscape:version="1.4.3 (fcd0343856, 2026-01-01)"
   xmlns:inkscape="http://www.inkscape.org/namespaces/inkscape"
   xmlns:sodipodi="http://sodipodi.sourceforge.net/DTD/sodipodi-0.dtd"
   xmlns="http://www.w3.org/2000/svg"
   xmlns:svg="http://www.w3.org/2000/svg">
  <sodipodi:namedview
     id="namedview1"
     pagecolor="#ffffff"
     bordercolor="#000000"
     borderopacity="0.25"
     inkscape:showpageshadow="2"
     inkscape:pageopacity="0.0"
     inkscape:pagecheckerboard="0"
     inkscape:deskcolor="#d1d1d1"
     inkscape:document-units="mm"
     inkscape:zoom="1.465213"
     inkscape:cx="-284.25902"
     inkscape:cy="59.718282"
     inkscape:window-width="3374"
     inkscape:window-height="1371"
     inkscape:window-x="434"
     inkscape:window-y="1112"
     inkscape:window-maximized="1"
     inkscape:current-layer="layer1" />
  <defs
     id="defs1">
    <rect
       x="4.825966"
       y="7.7215455"
       width="120.16655"
       height="116.30578"
       id="rect3" />
  </defs>
  <g
     inkscape:label="Icons"
     inkscape:groupmode="layer"
     id="layer1">
    <path
       style="font-family:'Noto Sans Adlam';-inkscape-font-specification:'Noto Sans Adlam';white-space:pre;fill:#139ab0;stroke:#139ab0;stroke-width:0.694871;stroke-linecap:round;stroke-linejoin:round;stroke-opacity:1"
       d="m 9.9261719,19.707205 q -1.416,0 -2.424,-0.528 -1.008,-0.528 -1.548,-1.512 -0.528,-0.996 -0.528,-2.388 0,-1.116 0.348,-2.064 0.348,-0.96 1.008,-1.656 0.66,-0.708 1.596,-1.092 0.948,-0.396 2.1360001,-0.396 1.248,0 2.22,0.516 0.972,0.516 1.524,1.476 0.564,0.96 0.564,2.292 0,0.552 -0.132,1.08 -0.12,0.528 -0.384,0.96 -0.264,0.42 -0.648,0.684 -0.384,0.252 -0.912,0.252 -0.552,0 -0.876,-0.312 -0.312,-0.324 -0.384,-0.732 h -0.06 q -0.216,0.444 -0.636,0.744 -0.42,0.3 -1.0560001,0.3 -0.912,0 -1.416,-0.612 -0.492,-0.612 -0.492,-1.62 0,-0.792 0.312,-1.392 0.312,-0.612 0.876,-0.96 0.576,-0.348 1.3560001,-0.348 0.528,0 1.032,0.096 0.516,0.084 0.804,0.192 l -0.12,2.436 q -0.012,0.216 -0.012,0.312 0,0.084 0,0.12 0,0.624 0.216,0.828 0.228,0.204 0.528,0.204 0.372,0 0.624,-0.3 0.264,-0.312 0.396,-0.816 0.144,-0.516 0.144,-1.128 0,-1.116 -0.456,-1.884 -0.444,-0.78 -1.236,-1.188 -0.78,-0.408 -1.776,-0.408 -1.3680001,0 -2.3160001,0.564 -0.936,0.564 -1.428,1.56 -0.48,0.984 -0.48,2.256 0,1.776 0.936,2.724 0.936,0.948 2.7,0.948 0.7320001,0 1.3920001,-0.168 0.672,-0.156 1.188,-0.348 v 0.816 q -0.516,0.216 -1.164,0.348 -0.636,0.144 -1.4160001,0.144 z m -0.036,-3.12 q 0.6720001,0 0.9600001,-0.504 0.3,-0.504 0.348,-1.308 l 0.072,-1.5 q -0.156,-0.048 -0.396,-0.084 -0.24,-0.036 -0.492,-0.036 -0.5880001,0 -0.9480001,0.288 -0.36,0.288 -0.516,0.744 -0.156,0.444 -0.156,0.936 0,0.768 0.3,1.116 0.312,0.348 0.828,0.348 z"
       id="text3"
       transform="matrix(11.512922,0,0,11.512922,-52.558629,-107.41852)"
       aria-label="@" />
  </g>
</svg>
