<?xml version="1.0" encoding="UTF-8" standalone="no"?>
<!-- Created with Inkscape (http://www.inkscape.org/) -->

<svg
   width="128"
   height="128"
   viewBox="0 0 128 128"
   version="1.1"
   id="svg1"
   inkscape:export-filename="../refresh.png"
   inkscape:export-xdpi="96"
   inkscape:export-ydpi="96"
   sodipodi:docname="refresh.svg"
   inkscape:version="1.4.3 (fcd0343856, 2026-01-01)"
   xmlns:inkscape="http://www.inkscape.org/namespaces/inkscape"
   xmlns:sodipodi="http://sodipodi.sourceforge.net/DTD/sodipodi-0.dtd"
   xmlns="http://www.w3.org/2000/svg"
   xmlns:svg="http://www.w3.org/2000/svg">
  <sodipodi:namedview
     id="namedview1"
     pagecolor="#ffffff"
     bordercolor="#000000"
     borderopacity="0.25"
     inkscape:showpageshadow="2"
     inkscape:pageopacity="0.0"
     inkscape:pagecheckerboard="0"
     inkscape:deskcolor="#d1d1d1"
     inkscape:document-units="mm"
     inkscape:zoom="8.2884961"
     inkscape:cx="76.913832"
     inkscape:cy="67.744497"
     inkscape:window-width="3374"
     inkscape:window-height="1371"
     inkscape:window-x="434"
     inkscape:window-y="1112"
     inkscape:window-maximized="1"
     inkscape:current-layer="layer1" />
  <defs
     id="defs1" />
  <g
     inkscape:label="Icons"
     inkscape:groupmode="layer"
     id="layer1">
    <path
       id="path1"
       style="fill:#1366b0;stroke-width:7.10557;stroke-linecap:round;stroke-linejoin:round"
       d="m 63.658203,10.867188 c -25.270675,1.11e-4 -46.381378,17.807181 -51.46875,41.558593 h 20.357422 c 4.552745,-12.785351 16.763244,-21.937436 31.111328,-21.9375 10.285116,4.5e-5 19.47228,4.703486 25.527344,12.076172 L 77.095703,54.654297 H 115.58203 V 16.166016 L 103.10156,28.646484 C 93.457067,17.741957 79.360542,10.867256 63.658203,10.867188 Z"
       sodipodi:nodetypes="cccccccccc" />
    <path
       id="path1-3"
       style="fill:#1366b0;stroke-width:7.10557;stroke-linecap:round;stroke-linejoin:round"
       d="M 63.430786,116.14062 C 88.70146,116.14051 109.81217,98.333437 114.89954,74.582024 H 94.542114 C 89.989368,87.367375 77.77887,96.519461 63.430786,96.519524 53.145669,96.519479 43.958506,91.816039 37.903442,84.443352 L 49.993286,72.353508 H 11.50696 V 110.84179 L 23.987431,98.361321 c 9.644491,10.904529 23.741016,17.779229 39.443355,17.779299 z"
       sodipodi:nodetypes="cccccccccc" />
  </g>
</svg>
